<svg width="640" height="800" viewBox="0 0 640 800" fill="none" xmlns="http://www.w3.org/2000/svg">
  <rect width="640" height="800" rx="48" fill="url(#bg)"/>
  <circle cx="320" cy="280" r="118" fill="rgba(255,255,255,0.14)"/>
  <path d="M321.5 208C283.116 208 252 239.116 252 277.5C252 343.375 321.5 398 321.5 398C321.5 398 391 343.375 391 277.5C391 239.116 359.884 208 321.5 208Z" fill="#FFD8EA"/>
  <rect x="128" y="470" width="384" height="132" rx="28" fill="rgba(255,255,255,0.09)"/>
  <text x="320" y="534" text-anchor="middle" fill="#FFF1F7" font-family="Verdana, sans-serif" font-size="44" font-weight="700">
    Happy Birthday
  </text>
  <text x="320" y="582" text-anchor="middle" fill="#FFD8EA" font-family="Verdana, sans-serif" font-size="24">
    Replace bằng ảnh thật của hai bạn
  </text>
  <path d="M154 145C174.987 145 192 127.987 192 107C192 86.0132 174.987 69 154 69C133.013 69 116 86.0132 116 107C116 127.987 133.013 145 154 145Z" fill="#FFB8D5" fill-opacity="0.72"/>
  <path d="M500 169C531.48 169 557 143.48 557 112C557 80.5198 531.48 55 500 55C468.52 55 443 80.5198 443 112C443 143.48 468.52 169 500 169Z" fill="#FFE4F0" fill-opacity="0.45"/>
  <path d="M508 692C553.84 692 591 654.84 591 609C591 563.16 553.84 526 508 526C462.16 526 425 563.16 425 609C425 654.84 462.16 692 508 692Z" fill="#FFB3D3" fill-opacity="0.22"/>
  <path d="M127 703C162.899 703 192 673.899 192 638C192 602.101 162.899 573 127 573C91.1015 573 62 602.101 62 638C62 673.899 91.1015 703 127 703Z" fill="#FFE6F1" fill-opacity="0.18"/>
  <defs>
    <linearGradient id="bg" x1="320" y1="0" x2="320" y2="800" gradientUnits="userSpaceOnUse">
      <stop stop-color="#180713"/>
      <stop offset="1" stop-color="#60193F"/>
    </linearGradient>
  </defs>
</svg>
